<svg width="700" height="500" xmlns="http://www.w3.org/2000/svg"
     xmlns:xlink="http://www.w3.org/1999/xlink"><style type="text/css">
svg {
  font-family: 'Open Sans', sans-serif;
}
.axis path,
.axis line {
  fill: none;
  stroke: #000;
  shape-rendering: crispEdges;
}
/*
.x.axis path {
  display: none;
}*/

.line {
  fill: none;
  stroke: steelblue;
  stroke-width: 1.5px;
}
.cloudy {
  color: gray;
}
.sunny {
  color: orange;
}

.data-point {
  fill: none;
  stroke: orange;
  stroke-width: 2.5px;
}

.grid .tick {
    stroke: lightgrey;
    opacity: 0.7;
}
.grid path {
      stroke-width: 0;
}

.data-point-2 {
  fill: #EBC925;
  stroke: #EBC925;
  stroke-width: 2.5px;
}

</style><g transform="translate(100,20)"><g class="x axis" transform="translate(0,380)"><g class="tick" transform="translate(0,0)" style="opacity: 1;"><line y2="6" x2="0"></line><text y="9" x="0" dy=".71em" style="text-anchor: middle;">0</text></g><g class="tick" transform="translate(60.416666666666664,0)" style="opacity: 1;"><line y2="6" x2="0"></line><text y="9" x="0" dy=".71em" style="text-anchor: middle;">5</text></g><g class="tick" transform="translate(120.83333333333333,0)" style="opacity: 1;"><line y2="6" x2="0"></line><text y="9" x="0" dy=".71em" style="text-anchor: middle;">10</text></g><g class="tick" transform="translate(181.25,0)" style="opacity: 1;"><line y2="6" x2="0"></line><text y="9" x="0" dy=".71em" style="text-anchor: middle;">15</text></g><g class="tick" transform="translate(241.66666666666666,0)" style="opacity: 1;"><line y2="6" x2="0"></line><text y="9" x="0" dy=".71em" style="text-anchor: middle;">20</text></g><g class="tick" transform="translate(302.0833333333333,0)" style="opacity: 1;"><line y2="6" x2="0"></line><text y="9" x="0" dy=".71em" style="text-anchor: middle;">25</text></g><g class="tick" transform="translate(362.5,0)" style="opacity: 1;"><line y2="6" x2="0"></line><text y="9" x="0" dy=".71em" style="text-anchor: middle;">30</text></g><g class="tick" transform="translate(422.91666666666663,0)" style="opacity: 1;"><line y2="6" x2="0"></line><text y="9" x="0" dy=".71em" style="text-anchor: middle;">35</text></g><g class="tick" transform="translate(483.3333333333333,0)" style="opacity: 1;"><line y2="6" x2="0"></line><text y="9" x="0" dy=".71em" style="text-anchor: middle;">40</text></g><g class="tick" transform="translate(543.75,0)" style="opacity: 1;"><line y2="6" x2="0"></line><text y="9" x="0" dy=".71em" style="text-anchor: middle;">45</text></g><path class="domain" d="M0,6V0H580V6"></path><text y="55" x="270" style="text-anchor: middle;">Cloud coverage (%)</text></g><g class="y axis"><g class="tick" transform="translate(0,380)" style="opacity: 1;"><line x2="-6" y2="0"></line><text x="-9" y="0" dy=".32em" style="text-anchor: end;">0</text></g><g class="tick" transform="translate(0,290.8265319148936)" style="opacity: 1;"><line x2="-6" y2="0"></line><text x="-9" y="0" dy=".32em" style="text-anchor: end;">200</text></g><g class="tick" transform="translate(0,201.65306382978724)" style="opacity: 1;"><line x2="-6" y2="0"></line><text x="-9" y="0" dy=".32em" style="text-anchor: end;">400</text></g><g class="tick" transform="translate(0,112.47959574468086)" style="opacity: 1;"><line x2="-6" y2="0"></line><text x="-9" y="0" dy=".32em" style="text-anchor: end;">600</text></g><g class="tick" transform="translate(0,23.306127659574486)" style="opacity: 1;"><line x2="-6" y2="0"></line><text x="-9" y="0" dy=".32em" style="text-anchor: end;">800</text></g><path class="domain" d="M-6,0H0V380H-6"></path><text transform="rotate(-90)" y="-60" dx="-2.81em" style="text-anchor: end;">Sunny micro-tweets per second (SMTPS)</text></g><g class="grid" transform="translate(0,380)"><g class="tick" transform="translate(0,0)" style="opacity: 1;"><line y2="-380" x2="0"></line><text y="3" x="0" dy=".71em" style="text-anchor: middle;"></text></g><g class="tick" transform="translate(60.416666666666664,0)" style="opacity: 1;"><line y2="-380" x2="0"></line><text y="3" x="0" dy=".71em" style="text-anchor: middle;"></text></g><g class="tick" transform="translate(120.83333333333333,0)" style="opacity: 1;"><line y2="-380" x2="0"></line><text y="3" x="0" dy=".71em" style="text-anchor: middle;"></text></g><g class="tick" transform="translate(181.25,0)" style="opacity: 1;"><line y2="-380" x2="0"></line><text y="3" x="0" dy=".71em" style="text-anchor: middle;"></text></g><g class="tick" transform="translate(241.66666666666666,0)" style="opacity: 1;"><line y2="-380" x2="0"></line><text y="3" x="0" dy=".71em" style="text-anchor: middle;"></text></g><g class="tick" transform="translate(302.0833333333333,0)" style="opacity: 1;"><line y2="-380" x2="0"></line><text y="3" x="0" dy=".71em" style="text-anchor: middle;"></text></g><g class="tick" transform="translate(362.5,0)" style="opacity: 1;"><line y2="-380" x2="0"></line><text y="3" x="0" dy=".71em" style="text-anchor: middle;"></text></g><g class="tick" transform="translate(422.91666666666663,0)" style="opacity: 1;"><line y2="-380" x2="0"></line><text y="3" x="0" dy=".71em" style="text-anchor: middle;"></text></g><g class="tick" transform="translate(483.3333333333333,0)" style="opacity: 1;"><line y2="-380" x2="0"></line><text y="3" x="0" dy=".71em" style="text-anchor: middle;"></text></g><g class="tick" transform="translate(543.75,0)" style="opacity: 1;"><line y2="-380" x2="0"></line><text y="3" x="0" dy=".71em" style="text-anchor: middle;"></text></g><path class="domain" d="M0,0V0H580V0"></path></g><g class="grid"><g class="tick" transform="translate(0,380)" style="opacity: 1;"><line x2="580" y2="0"></line><text x="-3" y="0" dy=".32em" style="text-anchor: end;"></text></g><g class="tick" transform="translate(0,335.4132659574468)" style="opacity: 1;"><line x2="580" y2="0"></line><text x="-3" y="0" dy=".32em" style="text-anchor: end;"></text></g><g class="tick" transform="translate(0,290.8265319148936)" style="opacity: 1;"><line x2="580" y2="0"></line><text x="-3" y="0" dy=".32em" style="text-anchor: end;"></text></g><g class="tick" transform="translate(0,246.23979787234043)" style="opacity: 1;"><line x2="580" y2="0"></line><text x="-3" y="0" dy=".32em" style="text-anchor: end;"></text></g><g class="tick" transform="translate(0,201.65306382978724)" style="opacity: 1;"><line x2="580" y2="0"></line><text x="-3" y="0" dy=".32em" style="text-anchor: end;"></text></g><g class="tick" transform="translate(0,157.06632978723405)" style="opacity: 1;"><line x2="580" y2="0"></line><text x="-3" y="0" dy=".32em" style="text-anchor: end;"></text></g><g class="tick" transform="translate(0,112.47959574468086)" style="opacity: 1;"><line x2="580" y2="0"></line><text x="-3" y="0" dy=".32em" style="text-anchor: end;"></text></g><g class="tick" transform="translate(0,67.89286170212768)" style="opacity: 1;"><line x2="580" y2="0"></line><text x="-3" y="0" dy=".32em" style="text-anchor: end;"></text></g><g class="tick" transform="translate(0,23.306127659574486)" style="opacity: 1;"><line x2="580" y2="0"></line><text x="-3" y="0" dy=".32em" style="text-anchor: end;"></text></g><path class="domain" d="M0,0H0V380H0"></path></g><g><circle class="data-point-2" cx="0" cy="0" r="5"></circle><circle class="data-point-2" cx="96.66666666666666" cy="151.19168044185488" r="5"></circle><circle class="data-point-2" cx="145" cy="178.02158984120865" r="5"></circle><circle class="data-point-2" cx="290" cy="175.09772958385483" r="5"></circle><circle class="data-point-2" cx="386.66666666666663" cy="171.13306387658898" r="5"></circle><circle class="data-point-2" cx="435" cy="74.21579944907506" r="5"></circle><circle class="data-point-2" cx="531.6666666666666" cy="380" r="5"></circle><circle class="data-point-2" cx="580" cy="344.1258911849864" r="5"></circle></g><line class="trendline" x1="0" y1="54.3724083939685" x2="580" y2="303.4739640042418" stroke="black" stroke-width="1"></line><text class="text-label" x="330" y="273.4739640042418">y = -11.89x + 742.21</text><text class="text-label" x="330" y="293.4739640042418">R² = 0.54</text></g></svg>
